<svg id="eqPLA3tgIvJ1" xmlns="http://www.w3.org/2000/svg" xmlns:xlink="http://www.w3.org/1999/xlink" viewBox="0 0 300 300" shape-rendering="geometricPrecision" text-rendering="geometricPrecision" project-id="b80d9de1e8b2418c8186fdfb3dce0d5b" export-id="d0327a583dc74fa8ae2a2de835c55dbb" cached="false"><rect width="410.55" height="365.687668" rx="0" ry="0" transform="translate(-110.55-50.64378)" fill="#222831" stroke-width="0"/><path d="M34,20.6c17.673112,0,32,14.326888,32,32s-14.326888,32-32,32Z" transform="matrix(1.209015 2.558815-2.525038 1.193055 240.153615 0.960486)" paint-order="markers stroke fill" fill="#222831" stroke="#eee" stroke-width="0.5"/><ellipse rx="139.839206" ry="34.959802" transform="matrix(.885846-.463979 0.463979 0.885846 151.28206 150)" fill="#d2dbed" fill-opacity="0" stroke="#eee" stroke-width="0.5"/><ellipse style="isolation:isolate" rx="18.47417" ry="18.47417" transform="translate(222.100589 150.000009)" fill="#222831" stroke="#eee" stroke-width="0.5"/><path d="M34,20.6c17.673112,0,32,14.326888,32,32s-14.326888,32-32,32Z" transform="matrix(-1.209015-2.558815 2.525038-1.193055 56.732677 300.469327)" paint-order="markers stroke fill" fill="#222831" stroke="#eee" stroke-width="0.5"/><line x1="-80.801201" y1="38.177772" x2="80.801201" y2="-38.177771" transform="translate(148.443146 150.714906)" fill="none" stroke="#222831" stroke-width="3"/></svg>
